<?xml version="1.0" standalone="no"?>
<!DOCTYPE svg PUBLIC "-//W3C//DTD SVG 20010904//EN"
 "http://www.w3.org/TR/2001/REC-SVG-20010904/DTD/svg10.dtd">
<svg version="1.0" xmlns="http://www.w3.org/2000/svg"
 width="16.000000pt" height="16.000000pt" viewBox="0 0 16.000000 16.000000"
 preserveAspectRatio="xMidYMid meet">
<metadata>
Created by potrace 1.11, written by Peter Selinger 2001-2013
</metadata>
<g transform="translate(0.000000,16.000000) scale(0.002446,-0.002446)"
fill="#000000" stroke="none">
<path d="M4108 6507 c-41 -34 -48 -59 -52 -170 -5 -152 -31 -207 -205 -422
-107 -133 -153 -225 -155 -311 l-1 -63 -70 -16 c-433 -98 -874 -376 -1119
-705 -22 -30 -43 -57 -46 -60 -3 -3 -26 -36 -51 -75 -42 -64 -49 -70 -82 -72
-77 -4 -160 -59 -196 -131 -47 -94 -127 -361 -156 -522 -9 -52 -18 -104 -20
-115 -4 -18 -12 -20 -102 -20 -82 -1 -106 -4 -148 -24 -27 -13 -58 -31 -68
-39 -16 -14 -23 -14 -70 3 -65 24 -184 28 -257 9 -145 -39 -238 -139 -359
-387 -107 -220 -170 -473 -175 -699 -2 -96 11 -238 25 -287 3 -10 -20 -22 -76
-40 -105 -34 -161 -64 -233 -122 -150 -121 -215 -320 -163 -494 24 -81 63
-147 112 -190 l35 -31 -28 -59 c-62 -132 -21 -293 111 -438 31 -34 39 -52 45
-97 13 -107 18 -136 46 -245 54 -216 154 -424 252 -524 102 -105 209 -151 347
-151 98 0 181 21 253 63 59 35 85 65 112 132 l24 57 23 -24 c127 -128 323
-163 534 -94 44 14 138 70 167 100 16 16 20 15 65 -8 145 -75 305 -68 488 20
l73 35 53 -17 c57 -19 194 -24 259 -10 102 21 215 74 263 122 l30 32 46 -23
c100 -50 214 -60 329 -30 62 16 150 53 176 74 11 9 27 8 75 -9 129 -43 261
-27 428 52 l62 30 63 -26 c166 -66 331 -63 496 10 78 34 197 120 252 182 77
86 97 172 65 279 -29 97 -148 193 -239 193 -42 0 -44 8 -15 41 59 66 150 232
164 302 2 10 6 26 9 35 9 28 19 95 20 129 l0 31 49 -19 c91 -36 179 -21 250
41 153 135 75 384 -129 414 -23 4 -21 12 14 51 44 48 126 164 182 254 144 233
256 526 299 786 6 33 13 74 16 90 18 109 24 358 11 495 -16 163 -73 410 -108
467 -35 59 -95 99 -163 110 -16 3 -31 8 -33 13 -13 36 -105 201 -149 270 -116
178 -302 381 -456 495 -34 25 -70 53 -80 61 -9 8 -19 14 -21 14 -2 0 -28 16
-57 36 -69 46 -251 138 -354 178 l-81 31 9 45 c13 73 -1 195 -34 294 -47 142
-87 212 -346 603 -61 92 -91 113 -162 113 -33 0 -53 -6 -73 -23z"/>
</g>
</svg>
